<?xml version="1.0" encoding="utf-8"?>
<!-- Generator: Adobe Illustrator 27.1.1, SVG Export Plug-In . SVG Version: 6.00 Build 0)  -->
<svg version="1.1" id="Layer_1" xmlns="http://www.w3.org/2000/svg" xmlns:xlink="http://www.w3.org/1999/xlink" x="0px" y="0px"
	 viewBox="0 0 250 250" style="enable-background:new 0 0 250 250;" xml:space="preserve">
<style type="text/css">
	.st0{fill:#FFFFFF;}
</style>
<g id="NewGroupe7_1_">
	<g id="NewGroup1-0">
		<g>
			<path class="st0" d="M198.8,136.5h-26.1c-1.5,0-2.7,1.2-2.7,2.7s1.2,2.7,2.7,2.7h26.1c1.5,0,2.7-1.2,2.7-2.7
				S200.3,136.5,198.8,136.5L198.8,136.5z"/>
			<path class="st0" d="M171.8,146.4h-10.6c-1.5,0-2.7,1.2-2.7,2.7s1.2,2.7,2.7,2.7h10.6c1.5,0,2.7-1.2,2.7-2.7
				C174.4,147.6,173.2,146.4,171.8,146.4L171.8,146.4z"/>
			<path class="st0" d="M163.3,131.8h16.1c1.5,0,2.7-1.2,2.7-2.7s-1.2-2.7-2.7-2.7h-16.1c-1.5,0-2.7,1.2-2.7,2.7
				S161.8,131.8,163.3,131.8L163.3,131.8z"/>
			<path class="st0" d="M138.1,155h-27.4v-23.5h5.8v9.3c0,1.5,1.2,2.7,2.7,2.7h10.4c1.5,0,2.7-1.2,2.7-2.7v-9.3h5.8V155L138.1,155z
				 M121.8,131.5h5.1v6.6h-5.1V131.5L121.8,131.5z M143.4,156.1v-25.7c0-2.3-1.9-4.2-4.2-4.2h-29.7c-2.3,0-4.2,1.9-4.2,4.2v25.7
				c0,2.3,1.9,4.2,4.2,4.2h29.6C141.5,160.3,143.4,158.4,143.4,156.1L143.4,156.1L143.4,156.1z"/>
			<path class="st0" d="M124.4,111c-2.9,0-5.3-2.4-5.3-5.3s2.4-5.3,5.3-5.3s5.3,2.4,5.3,5.3l0,0C129.7,108.6,127.3,111,124.4,111
				L124.4,111z M124.4,95c-5.9,0-10.7,4.8-10.7,10.7c0,5.9,4.8,10.7,10.7,10.7c5.9,0,10.7-4.8,10.7-10.7C135,99.8,130.2,95,124.4,95
				L124.4,95z"/>
			<path class="st0" d="M78.4,139.1c0-1.5-1.2-2.7-2.7-2.7H49.6c-1.5,0-2.7,1.2-2.7,2.7s1.2,2.7,2.7,2.7h26.1
				C77.2,141.8,78.4,140.6,78.4,139.1L78.4,139.1z"/>
			<path class="st0" d="M87.2,146.4H76.7c-1.5,0-2.7,1.2-2.7,2.7s1.2,2.7,2.7,2.7h10.6c1.5,0,2.7-1.2,2.7-2.7
				C89.9,147.6,88.7,146.4,87.2,146.4L87.2,146.4z"/>
			<g>
				<g>
					<path class="st0" d="M85.2,131.8c1.5,0,2.7-1.2,2.7-2.7s-1.2-2.7-2.7-2.7H69.1c-1.5,0-2.7,1.2-2.7,2.7s1.2,2.7,2.7,2.7H85.2
						L85.2,131.8z"/>
				</g>
				<g>
					<path class="st0" d="M190.4,96.2v10.4h-0.1l-43.7,5.9c-0.4,0.1-0.8,0.2-1.2,0.5c-6.2,4.1-13.6,6.2-21.1,6
						c-7.5,0.2-14.8-2-21.1-6.1c-0.3-0.3-0.8-0.4-1.2-0.5l-43.7-5.9h-0.1V96.2H67v3.9c0,1.5,1.2,2.7,2.7,2.7h24.8
						c0.7,0,1.3-0.3,1.8-0.7c16.2-13.5,39.7-13.5,55.9,0c0.5,0.5,1.2,0.7,1.8,0.7h25c1.5,0,2.7-1.2,2.7-2.7v-3.9H190.4L190.4,96.2z
						 M207,84.4L207,84.4h-42c-1.5,0-2.7,1.2-2.7,2.7s1.2,2.7,2.7,2.7h18.3V91h-2c-2.8,0-5,2.2-5,5v1.5h-21.1
						c-18-14.5-43.6-14.5-61.6,0H72.5V96c0-2.8-2.2-5-5-5H66v-1.2h18.3c1.5,0,2.7-1.2,2.7-2.7s-1.2-2.7-2.7-2.7h-42
						c-1.5,0-2.7,1.2-2.7,2.7s1.2,2.7,2.7,2.7h18.3V91h-2.5c-2.8,0-5,2.2-5,5v10.9c0,2.7,2.1,4.9,4.8,5l36.8,5V160
						c0,3.9,3.2,7.1,7.1,7.1h12.1c1.5,0,2.7-1.2,2.7-2.7s-1.2-2.7-2.7-2.7h-12.1c-1,0-1.8-0.8-1.8-1.8v-42.4l0.8,0.1
						c7,4.5,15.2,6.8,23.6,6.7c8.3,0.1,16.5-2.2,23.6-6.7l1.1-0.1V160c0,1-0.8,1.8-1.8,1.8h-12c-1.5,0-2.7,1.2-2.7,2.7
						s1.2,2.7,2.7,2.7h12c3.9,0,7.1-3.2,7.1-7.1l0,0v-43.2l36.5-4.9c2.7-0.1,4.8-2.3,4.8-5V96c0-2.8-2.2-5-5-5h-2v-1.2H207
						c1.5,0,2.7-1.2,2.7-2.7C209.6,85.6,208.4,84.4,207,84.4L207,84.4z"/>
				</g>
			</g>
		</g>
	</g>
</g>
</svg>
